<?xml version="1.0" encoding="utf-8"?>
<!-- Generator: Adobe Illustrator 24.1.2, SVG Export Plug-In . SVG Version: 6.00 Build 0)  -->
<svg version="1.1" id="Layer_1" xmlns="http://www.w3.org/2000/svg" xmlns:xlink="http://www.w3.org/1999/xlink" x="0px" y="0px"
	 viewBox="0 0 500 500" style="enable-background:new 0 0 500 500;" xml:space="preserve">
<style type="text/css">
	.st0{fill:#D7D7D7;}
	.st1{fill:url(#SVGID_1_);}
</style>
<g>
	<g>
		<g>
			<path class="st0" d="M384.2,123.9L303,42.7l-81.2,81.2l81.2,81.2v-81.2C303,123.9,385.6,122.6,384.2,123.9z"/>
		</g>
	</g>
	<g>
		<g>
			<path class="st0" d="M434.2,255.1V140.3H319.4v114.8l57.4-57.4C376.8,197.7,436.1,255.1,434.2,255.1z"/>
		</g>
	</g>
	<g>
		<g>
			<path class="st0" d="M376.8,383.3l81.2-81.2l-81.2-81.2l-81.2,81.2h81.2C376.8,302.1,378.1,384.6,376.8,383.3z"/>
		</g>
	</g>
	<g>
		<g>
			<path class="st0" d="M245.6,433.3h114.8V318.4H245.6l57.4,57.4C303,375.9,245.6,435.2,245.6,433.3z"/>
		</g>
	</g>
	<g>
		<g>
			<path class="st0" d="M117.4,375.9l81.2,81.2l81.2-81.2l-81.2-81.2v81.2C198.7,375.9,116.1,377.2,117.4,375.9z"/>
		</g>
	</g>
	<g>
		<g>
			<path class="st0" d="M67.4,244.7v114.8h114.9V244.7l-57.4,57.4C124.9,302.1,65.5,244.7,67.4,244.7z"/>
		</g>
	</g>
	<g>
		<g>
			<path class="st0" d="M124.9,116.5l-81.2,81.2l81.2,81.2l81.2-81.2h-81.2C124.9,197.7,123.5,115.2,124.9,116.5z"/>
		</g>
	</g>
	<g>
		<g>
			
				<linearGradient id="SVGID_1_" gradientUnits="userSpaceOnUse" x1="34.9271" y1="345.2697" x2="-93.1809" y2="217.1618" gradientTransform="matrix(0.8969 0 0 -0.8969 224.7739 376.1724)">
				<stop  offset="3.435144e-03" style="stop-color:#EF4857"/>
				<stop  offset="0.4689" style="stop-color:#D211EC"/>
				<stop  offset="1" style="stop-color:#7F52FF"/>
			</linearGradient>
			<polygon class="st1" points="256.1,181.4 141.2,181.4 141.2,66.5 256.1,66.5 198.7,123.9 			"/>
		</g>
	</g>
</g>
</svg>
